  <svg
    width="17"
    height="33"
    viewBox="0 0 17 33"
    fill="none"
    xmlns="http://www.w3.org/2000/svg"
    >
    <path
    d="M10.7157 24.7368C13.9478 24.5947 16.4961 21.9351 16.5001 18.6999C16.5001 18.3962 16.2538 18.1499 15.9501 18.1499C12.6995 18.1539 10.0331 20.7257 9.91158 23.9739C9.62276 24.3176 9.23432 24.5632 8.80003 24.6768V18.6493C9.54212 18.527 10.219 18.1516 10.7157 17.5867C13.9478 17.4447 16.4961 14.7851 16.5001 11.5499C16.5001 11.2462 16.2538 10.9999 15.9501 10.9999C12.6995 11.0038 10.0331 13.5756 9.91158 16.8239C9.62276 17.1676 9.23432 17.4131 8.80003 17.5268V11.6506C11.8688 8.40989 11.7973 3.3144 8.63888 0.16103C8.4241 -0.0536767 8.07595 -0.0536767 7.86118 0.16103C4.70272 3.3144 4.63122 8.40989 7.70003 11.6506V17.5268C7.26573 17.4131 6.87736 17.1676 6.58847 16.8239C6.46699 13.5756 3.80051 11.0038 0.550002 10.9999C0.246263 10.9999 0 11.2462 0 11.5499C0.00391876 14.7851 2.55228 17.4447 5.78437 17.5867C6.28102 18.1516 6.95794 18.527 7.70003 18.6493V24.6768C7.26573 24.5632 6.87736 24.3176 6.58847 23.9739C6.46699 20.7257 3.80051 18.1539 0.550002 18.1499C0.246263 18.1499 0 18.3962 0 18.6999C0.00391876 21.9351 2.55228 24.5947 5.78437 24.7368C6.28102 25.3016 6.95794 25.6771 7.70003 25.7994V31.8268C7.26573 31.7132 6.87736 31.4676 6.58847 31.1239C6.46699 27.8757 3.80051 25.3039 0.550002 25.3C0.246263 25.3 0 25.5462 0 25.85C0.00391876 29.0851 2.55228 31.7447 5.78437 31.8868C6.98516 33.2485 9.06252 33.379 10.4243 32.1782C10.5274 32.0873 10.6247 31.9899 10.7157 31.8868C13.9478 31.7447 16.4961 29.0851 16.5001 25.85C16.5001 25.5462 16.2538 25.3 15.9501 25.3C12.6995 25.3039 10.0331 27.8757 9.91158 31.1239C9.62276 31.4676 9.23432 31.7132 8.80003 31.8268V25.7994C9.54212 25.6771 10.219 25.3016 10.7157 24.7368ZM15.366 19.284C15.0928 21.5537 13.3038 23.3427 11.0341 23.6159C11.3073 21.3462 13.0963 19.5572 15.366 19.284ZM15.366 12.134C15.0928 14.4037 13.3038 16.1927 11.0341 16.4658C11.3073 14.1962 13.0963 12.4072 15.366 12.134ZM1.1341 12.134C3.40375 12.4072 5.19277 14.1962 5.46592 16.4658C3.19627 16.1928 1.40725 14.4037 1.1341 12.134ZM1.1341 19.284C3.40375 19.5572 5.19277 21.3462 5.46592 23.6159C3.19627 23.3428 1.40725 21.5538 1.1341 19.284ZM1.1341 26.4341C3.40375 26.7072 5.19277 28.4962 5.46592 30.7659C3.19627 30.4928 1.40725 28.7038 1.1341 26.4341ZM15.366 26.4341C15.0928 28.7037 13.3038 30.4927 11.0341 30.7659C11.3073 28.4962 13.0963 26.7072 15.366 26.4341ZM8.25003 10.6298C5.97549 7.95827 5.97549 4.03105 8.25003 1.35948C10.5246 4.03105 10.5246 7.95827 8.25003 10.6298Z"
    fill="white"
    ></path>
</svg>